#Comment line ignore any data following # character 
#Hierarchical Translation and Rotation (.htr) file 
[Header]	
#Header keywords are followed by a single value 
FileType HTR		#Single word string
DataType HTRS		#Translation followed by rotation and scale data
FileVersion 1		#integer
NumSegments 64		#integer
NumFrames 3		#integer
DataFrameRate 30		#integer, data frame rate in this file
EulerRotationOrder ZYX
CalibrationUnits mm
RotationUnits Degrees
GlobalAxisofGravity Y
BoneLengthAxis Y
ScaleFactor 1.00
[SegmentNames&Hierarchy]
#CHILD	PARENT
Pinger_Root GLOBAL
Pelvis Pinger_Root
L_Hip Pelvis
R_Hip Pelvis
Rear_Leg01 Pelvis
Spine1 Pelvis
L_Leg01 L_Hip
L_Leg02 L_Leg01
L_Leg03 L_Leg02
L_Foot L_Leg03
L_Toe1_01 L_Foot
L_Toe2_01 L_Foot
L_Toe3_01 L_Foot
planeAlignerLeft L_Foot
L_Toe1_02 L_Toe1_01
L_Toe1_03 L_Toe1_02
L_Toe2_02 L_Toe2_01
L_Toe2_03 L_Toe2_02
L_Toe3_02 L_Toe3_01
L_Toe3_03 L_Toe3_02
planeLockWeightLeft planeAlignerLeft
R_Leg01 R_Hip
R_Leg02 R_Leg01
R_Leg03 R_Leg02
R_Foot R_Leg03
planeAlignerRight R_Foot
R_Toe1_01 R_Foot
R_Toe2_01 R_Foot
R_Toe3_01 R_Foot
planeLockWeightRight planeAlignerRight
R_Toe1_02 R_Toe1_01
R_Toe1_03 R_Toe1_02
R_Toe2_02 R_Toe2_01
R_Toe2_03 R_Toe2_02
R_Toe3_02 R_Toe3_01
R_Toe3_03 R_Toe3_02
Rear_Leg02 Rear_Leg01
Rear_Leg03 Rear_Leg02
Rear_Leg04 Rear_Leg03
Rear_Foot Rear_Leg04
planeAlignerCenter Rear_Foot
Rear_Toe1_01 Rear_Foot
Rear_Toe2_01 Rear_Foot
Rear_Toe3_01 Rear_Foot
planeLockWeightCenter planeAlignerCenter
Rear_Toe1_02 Rear_Toe1_01
Rear_Toe1_03 Rear_Toe1_02
Rear_Toe2_02 Rear_Toe2_01
Rear_Toe2_03 Rear_Toe2_02
Rear_Toe3_02 Rear_Toe3_01
Rear_Toe3_03 Rear_Toe3_02
Back_Bone Spine1
Head Spine1
Motor_Bone Back_Bone
Ping_Mechanism Back_Bone
BN_LookIK Head
bottomMouth Head
L_Mouth01 Head
L_mouthFront Head
mouthGun Head
R_Mouth01 Head
R_mouthFront Head
TopMouth Head
weapon_bone Head
[BasePosition]
#SegmentName Tx, Ty, Tz, Rx, Ry, Rz, BoneLength
Pinger_Root 0.000000 0.000000 0.000000 -90.000000 0.000000 0.000000 10.000000 
Pelvis 0.000000 0.000000 0.000000 0.000000 0.000000 0.000000 10.000000 
L_Hip 0.000000 0.000000 0.000000 0.000000 0.000000 0.000000 10.000000 
R_Hip 0.000000 0.000000 0.000000 0.000000 0.000000 0.000000 10.000000 
Rear_Leg01 0.000000 0.000000 0.000000 0.000000 0.000000 0.000000 10.000000 
Spine1 0.000000 0.000000 0.000000 0.000000 0.000000 0.000000 10.000000 
L_Leg01 0.000000 0.000000 0.000000 0.000000 0.000000 0.000000 10.000000 
L_Leg02 0.000000 0.000000 0.000000 0.000000 0.000000 0.000000 10.000000 
L_Leg03 0.000000 0.000000 0.000000 0.000000 0.000000 0.000000 10.000000 
L_Foot 0.000000 0.000000 0.000000 0.000000 0.000000 0.000000 10.000000 
L_Toe1_01 0.000000 0.000000 0.000000 0.000000 0.000000 0.000000 10.000000 
L_Toe2_01 0.000000 0.000000 0.000000 0.000000 0.000000 0.000000 10.000000 
L_Toe3_01 0.000000 0.000000 0.000000 0.000000 0.000000 0.000000 10.000000 
planeAlignerLeft 0.000000 0.000000 0.000000 0.000000 0.000000 0.000000 10.000000 
L_Toe1_02 0.000000 0.000000 0.000000 0.000000 0.000000 0.000000 10.000000 
L_Toe1_03 0.000000 0.000000 0.000000 0.000000 0.000000 0.000000 10.000000 
L_Toe2_02 0.000000 0.000000 0.000000 0.000000 0.000000 0.000000 10.000000 
L_Toe2_03 0.000000 0.000000 0.000000 0.000000 0.000000 0.000000 10.000000 
L_Toe3_02 0.000000 0.000000 0.000000 0.000000 0.000000 0.000000 10.000000 
L_Toe3_03 0.000000 0.000000 0.000000 0.000000 0.000000 0.000000 10.000000 
planeLockWeightLeft 0.000000 0.000000 0.000000 0.000000 0.000000 0.000000 10.000000 
R_Leg01 0.000000 0.000000 0.000000 0.000000 0.000000 0.000000 10.000000 
R_Leg02 0.000000 0.000000 0.000000 0.000000 0.000000 0.000000 10.000000 
R_Leg03 0.000000 0.000000 0.000000 0.000000 0.000000 0.000000 10.000000 
R_Foot 0.000000 0.000000 0.000000 0.000000 0.000000 0.000000 10.000000 
planeAlignerRight 0.000000 0.000000 0.000000 0.000000 0.000000 0.000000 10.000000 
R_Toe1_01 0.000000 0.000000 0.000000 0.000000 0.000000 0.000000 10.000000 
R_Toe2_01 0.000000 0.000000 0.000000 0.000000 0.000000 0.000000 10.000000 
R_Toe3_01 0.000000 0.000000 0.000000 0.000000 0.000000 0.000000 10.000000 
planeLockWeightRight 0.000000 0.000000 0.000000 0.000000 0.000000 0.000000 10.000000 
R_Toe1_02 0.000000 0.000000 0.000000 0.000000 0.000000 0.000000 10.000000 
R_Toe1_03 0.000000 0.000000 0.000000 0.000000 0.000000 0.000000 10.000000 
R_Toe2_02 0.000000 0.000000 0.000000 0.000000 0.000000 0.000000 10.000000 
R_Toe2_03 0.000000 0.000000 0.000000 0.000000 0.000000 0.000000 10.000000 
R_Toe3_02 0.000000 0.000000 0.000000 0.000000 0.000000 0.000000 10.000000 
R_Toe3_03 0.000000 0.000000 0.000000 0.000000 0.000000 0.000000 10.000000 
Rear_Leg02 0.000000 0.000000 0.000000 0.000000 0.000000 0.000000 10.000000 
Rear_Leg03 0.000000 0.000000 0.000000 0.000000 0.000000 0.000000 10.000000 
Rear_Leg04 0.000000 0.000000 0.000000 0.000000 0.000000 0.000000 10.000000 
Rear_Foot 0.000000 0.000000 0.000000 0.000000 0.000000 0.000000 10.000000 
planeAlignerCenter 0.000000 0.000000 0.000000 0.000000 0.000000 0.000000 10.000000 
Rear_Toe1_01 0.000000 0.000000 0.000000 0.000000 0.000000 0.000000 10.000000 
Rear_Toe2_01 0.000000 0.000000 0.000000 0.000000 0.000000 0.000000 10.000000 
Rear_Toe3_01 0.000000 0.000000 0.000000 0.000000 0.000000 0.000000 10.000000 
planeLockWeightCenter 0.000000 0.000000 0.000000 0.000000 0.000000 0.000000 10.000000 
Rear_Toe1_02 0.000000 0.000000 0.000000 0.000000 0.000000 0.000000 10.000000 
Rear_Toe1_03 0.000000 0.000000 0.000000 0.000000 0.000000 0.000000 10.000000 
Rear_Toe2_02 0.000000 0.000000 0.000000 0.000000 0.000000 0.000000 10.000000 
Rear_Toe2_03 0.000000 0.000000 0.000000 0.000000 0.000000 0.000000 10.000000 
Rear_Toe3_02 0.000000 0.000000 0.000000 0.000000 0.000000 0.000000 10.000000 
Rear_Toe3_03 0.000000 0.000000 0.000000 0.000000 0.000000 0.000000 10.000000 
Back_Bone 0.000000 0.000000 0.000000 0.000000 0.000000 0.000000 10.000000 
Head 0.000000 0.000000 0.000000 0.000000 0.000000 0.000000 10.000000 
Motor_Bone 0.000000 0.000000 0.000000 0.000000 0.000000 0.000000 10.000000 
Ping_Mechanism 0.000000 0.000000 0.000000 0.000000 0.000000 0.000000 10.000000 
BN_LookIK 0.000000 0.000000 0.000000 0.000000 0.000000 0.000000 10.000000 
bottomMouth 0.000000 0.000000 0.000000 0.000000 0.000000 0.000000 10.000000 
L_Mouth01 0.000000 0.000000 0.000000 0.000000 0.000000 0.000000 10.000000 
L_mouthFront 0.000000 0.000000 0.000000 0.000000 0.000000 0.000000 10.000000 
mouthGun 0.000000 0.000000 0.000000 0.000000 0.000000 0.000000 10.000000 
R_Mouth01 0.000000 0.000000 0.000000 0.000000 0.000000 0.000000 10.000000 
R_mouthFront 0.000000 0.000000 0.000000 0.000000 0.000000 0.000000 10.000000 
TopMouth 0.000000 0.000000 0.000000 0.000000 0.000000 0.000000 10.000000 
weapon_bone 0.000000 0.000000 0.000000 0.000000 0.000000 0.000000 10.000000 
#Beginning of Data. Separated by tabs
#Fr	Tx	Ty	Tz	Rx	Ry	Rz	SF
[Pinger_Root]
16 -1333.819336 -0.000368 0.000000 -0.000075 -0.000000 -0.000020 1333.819458
17 -1426.472290 -0.000394 0.000000 -0.000075 -0.000000 -0.000020 1426.472290
18 -1517.609741 -0.000419 0.000000 -0.000075 -0.000000 -0.000020 1517.609741
[Pelvis]
16 -205.943283 -92.393570 4581.820801 33.778969 -73.604927 8.785056 4587.377441
17 -160.035278 -107.305321 4591.529785 33.518600 -73.062599 10.266617 4595.570801
18 -115.130501 -118.638359 4616.569336 33.312817 -72.518486 11.695505 4619.528320
[L_Hip]
16 5.766392 125.831482 872.656799 -178.253296 -81.787666 87.381149 881.701050
17 5.766392 125.831482 872.656799 -178.253342 -81.787758 87.381340 881.701050
18 5.766392 125.831482 872.656799 -178.253311 -81.787712 87.381248 881.701050
[R_Hip]
16 5.765438 125.836372 -872.654907 -1.746701 81.787666 87.381149 881.699829
17 5.765438 125.836372 -872.654907 -1.746678 81.787712 87.381248 881.699829
18 5.765438 125.836372 -872.654907 -1.746713 81.787666 87.381149 881.699829
[Rear_Leg01]
16 -192.298416 -925.602966 -0.001907 154.356094 10.142076 162.247330 945.367432
17 -192.298416 -925.602966 -0.001907 154.911224 12.604893 166.455551 945.367432
18 -192.298416 -925.602966 -0.001907 156.687851 15.481789 171.434906 945.367432
[Spine1]
16 290.604584 5.007505 0.000477 -34.811291 3.035913 32.990150 290.647736
17 290.604584 5.007505 0.000477 -36.177902 3.063355 32.813450 290.647736
18 290.604584 5.007505 0.000477 -37.544815 3.086584 32.636127 290.647736
[L_Leg01]
16 761.932007 -0.002384 -0.069261 68.475357 -13.618018 -85.897041 761.932068
17 761.932007 -0.002384 -0.069261 68.421715 -14.609245 -86.391792 761.932068
18 761.932007 -0.002384 -0.069261 68.412537 -14.939224 -86.898743 761.932068
[L_Leg02]
16 1441.140503 -0.000954 -0.000715 -1.092568 0.902585 -113.971184 1441.140503
17 1441.140503 -0.000954 -0.000715 -1.080883 0.902177 -113.882660 1441.140503
18 1441.140503 -0.000954 -0.000715 -1.062834 0.918263 -112.980988 1441.140503
[L_Leg03]
16 1686.963989 -0.000715 -0.000954 0.115809 -0.009107 78.178207 1686.963989
17 1686.963989 -0.000715 -0.000954 0.121136 -0.007224 76.905823 1686.963989
18 1686.963989 -0.000715 -0.000954 0.126422 -0.005222 75.633118 1686.963989
[L_Foot]
16 3041.570068 -30.715107 11.297464 -11.673828 14.376291 95.810844 3041.746094
17 3041.570068 -30.715107 11.297464 -11.359797 13.355871 96.177986 3041.746094
18 3041.570068 -30.715107 11.297464 -11.053760 12.333623 96.537857 3041.746094
[L_Toe1_01]
16 -188.216690 -224.732346 -21.137953 89.317535 -2.155146 -161.112991 293.899567
17 -188.216690 -224.732346 -21.137953 89.311707 -2.212149 -160.837982 293.899567
18 -188.216690 -224.732346 -21.137953 89.305595 -2.269122 -160.562943 293.899567
[L_Toe2_01]
16 200.746536 -219.926590 148.838394 -77.345123 -13.823959 -45.821148 332.896027
17 200.746536 -219.926590 148.838394 -77.287148 -13.883966 -46.005318 332.896027
18 200.746536 -219.926590 148.838394 -77.160248 -13.890427 -46.485878 332.896027
[L_Toe3_01]
16 188.832520 -219.859131 -191.078659 -106.294327 16.437782 -47.577938 347.140900
17 188.832520 -219.859131 -191.078659 -106.351715 16.311398 -47.842400 347.140900
18 188.832520 -219.859131 -191.078659 -106.408463 16.184761 -48.106564 347.140900
[planeAlignerLeft]
16 -59.765423 -635.336304 5.649318 0.000000 -89.951546 -90.041489 638.166138
17 -61.237232 -638.297302 7.285871 0.000000 -89.951546 -90.044144 641.269470
18 -62.709049 -641.258362 8.922428 0.000000 -89.951546 -90.046806 644.379028
[L_Toe1_02]
16 413.761139 0.000477 0.000000 0.001396 -24.474918 0.001396 413.761139
17 413.761139 0.000477 0.000000 0.001395 -24.588808 0.001395 413.761139
18 413.761139 0.000477 0.000000 0.001394 -24.702702 0.001394 413.761139
[L_Toe1_03]
16 464.317322 0.000358 -0.000089 0.007234 71.324982 0.007234 464.317322
17 464.317322 0.000358 -0.000089 0.007051 70.836441 0.007051 464.317322
18 464.317322 0.000358 -0.000089 0.006877 70.347916 0.006877 464.317322
[L_Toe2_02]
16 342.235809 -0.000477 0.000238 0.001179 -78.620659 0.001179 342.235809
17 342.235809 -0.000477 0.000238 0.001179 -78.593811 0.001179 342.235809
18 342.235809 -0.000477 0.000238 0.001179 -78.567024 0.001179 342.235809
[L_Toe2_03]
16 420.210846 -0.000715 0.000000 -179.998047 72.259491 -179.994507 420.210846
17 420.210846 -0.000715 0.000000 -179.998001 72.455681 -179.994461 420.210846
18 420.210846 -0.000715 0.000000 -179.997955 72.651886 -179.994415 420.210846
[L_Toe3_02]
16 329.270111 0.000954 0.000000 0.001176 -82.266525 0.001176 329.270111
17 329.270111 0.000954 0.000000 0.001176 -82.306419 0.001176 329.270111
18 329.270111 0.000954 0.000000 0.001176 -82.346291 0.001176 329.270111
[L_Toe3_03]
16 439.137451 -0.001907 0.000954 -179.998444 70.162682 -179.994888 439.137451
17 439.137451 -0.001907 0.000954 -179.998459 70.045662 -179.994919 439.137451
18 439.137451 -0.001907 0.000954 -179.998444 70.227173 -179.994888 439.137451
[planeLockWeightLeft]
16 1000.000244 -0.000305 -0.000073 -0.011826 -0.004376 0.005620 1000.000244
17 1000.000244 -0.000305 -0.000069 -0.011826 -0.004376 0.005620 1000.000244
18 1000.000244 -0.000305 -0.000065 -0.011826 -0.004376 0.005620 1000.000244
[R_Leg01]
16 761.455627 -0.001907 -0.000358 105.501732 -24.513601 30.885559 761.455688
17 761.455627 -0.001907 -0.000358 112.671249 -16.336605 27.510735 761.455688
18 761.455627 -0.001907 -0.000358 115.070656 -8.738016 28.641224 761.455688
[R_Leg02]
16 1441.140625 0.000000 -0.000238 -0.244713 -0.006694 -132.067108 1441.140625
17 1441.140625 0.000000 -0.000238 -0.366258 -0.011517 -131.850372 1441.140625
18 1441.140625 0.000000 -0.000238 -0.504444 -0.047814 -130.688080 1441.140625
[R_Leg03]
16 1686.963989 0.000954 0.001431 -0.004582 0.000771 109.112686 1686.963989
17 1686.963989 0.000954 0.001431 0.018597 -0.007811 115.555504 1686.963989
18 1686.963989 0.000954 0.001431 0.040667 -0.018941 121.998329 1686.963989
[R_Foot]
16 3041.560059 -30.531288 -11.204481 58.300659 -25.279022 9.136278 3041.734131
17 3041.560059 -30.531288 -11.204481 53.062935 -28.060497 9.161618 3041.734131
18 3041.560059 -30.531288 -11.204481 49.079762 -32.271431 10.917576 3041.734131
[planeAlignerRight]
16 -262.987976 -760.223389 64.743332 0.000000 -89.951546 -90.033577 807.027893
17 -262.836761 -762.276550 60.555794 0.000000 -89.937447 -90.035477 808.588684
18 -262.685547 -764.329590 56.368233 0.000000 -89.937447 -90.037376 810.173340
[R_Toe1_01]
16 -188.383347 -224.864899 21.052242 91.372635 1.374876 -140.307739 294.101532
17 -188.383347 -224.864899 21.052242 91.451706 0.799961 -142.863754 294.101532
18 -188.383347 -224.864899 21.052242 91.457405 0.679456 -144.183777 294.101532
[R_Toe2_01]
16 200.637817 -220.002121 -148.787384 -106.791573 5.085770 -75.498436 332.857574
17 200.637817 -220.002121 -148.787384 -107.166237 3.904025 -81.150818 332.857574
18 200.637817 -220.002121 -148.787384 -107.211906 4.399739 -81.536255 332.857574
[R_Toe3_01]
16 188.606735 -220.092957 191.126343 -67.188087 -16.364223 -78.615662 347.192566
17 188.606735 -220.092957 191.126343 -66.911385 -14.175110 -83.702812 347.192566
18 188.606735 -220.092957 191.126343 -66.939339 -13.704118 -83.844719 347.192566
[planeLockWeightRight]
16 0.000000 0.000000 0.000000 -0.011823 -0.004379 -0.000027 0.000000
17 0.000000 0.000000 0.000000 -0.011823 -0.004379 -0.000027 0.000000
18 0.000000 0.000000 0.000000 -0.011823 -0.004379 -0.000027 0.000000
[R_Toe1_02]
16 413.762085 0.000477 -0.000119 0.001414 -22.199640 0.001414 413.762085
17 413.762085 0.000477 -0.000119 0.001423 -21.081823 0.001423 413.762085
18 413.762085 0.000477 -0.000119 0.001424 -21.029015 0.001424 413.762085
[R_Toe1_03]
16 464.317810 0.000000 0.001088 -0.010035 82.042213 -0.006530 464.317810
17 464.317810 0.000000 0.001088 -0.020593 86.504250 -0.017094 464.317810
18 464.317810 0.000000 0.001088 -0.027054 87.396988 -0.023557 464.317810
[R_Toe2_02]
16 342.234741 -0.000954 0.000238 -0.002331 -80.820541 -0.002331 342.234741
17 342.234741 -0.000954 0.000238 -0.002331 -80.804008 -0.002331 342.234741
18 342.234741 -0.000954 0.000238 -0.002331 -80.787437 -0.002331 342.234741
[R_Toe2_03]
16 420.210846 0.000715 -0.000268 -179.996475 49.195141 179.999786 420.210846
17 420.210846 0.000715 -0.000268 -179.996475 49.856632 179.999817 420.210846
18 420.210846 0.000715 -0.000268 -179.996445 50.518188 179.999847 420.210846
[R_Toe3_02]
16 329.270355 -0.000477 -0.000954 0.001175 -84.297005 0.001175 329.270355
17 329.270355 -0.000477 -0.000954 0.001175 -84.381439 0.001175 329.270355
18 329.270355 -0.000477 -0.000954 0.001175 -84.466003 0.001175 329.270355
[R_Toe3_03]
16 439.137939 0.000238 0.001431 -179.996521 52.221703 -179.989136 439.137939
17 439.137939 0.000238 0.001431 -179.996567 51.990494 -179.989182 439.137939
18 439.137939 0.000238 0.001431 -179.996490 52.362793 -179.989105 439.137939
[Rear_Leg02]
16 1162.777710 -0.029802 0.005960 0.702243 -0.159813 171.839828 1162.777710
17 1162.777710 -0.029802 0.005960 -5.617891 2.000505 174.019119 1162.777710
18 1162.777710 -0.029802 0.005960 -12.939116 3.993741 178.130829 1162.777710
[Rear_Leg03]
16 607.192505 -0.013351 -0.073195 0.009923 -0.006139 79.844772 607.192505
17 607.192505 -0.013351 -0.073195 0.009911 -0.006158 80.058098 607.192505
18 607.192505 -0.013351 -0.073195 0.009900 -0.006176 80.271416 607.192505
[Rear_Leg04]
16 995.874512 -0.020504 -0.011921 -0.044660 -0.013045 101.592224 995.874573
17 995.874512 -0.020504 -0.011921 -0.044872 -0.012297 103.506744 995.874573
18 995.874512 -0.020504 -0.011921 -0.041985 -0.015722 104.760834 995.874573
[Rear_Foot]
16 3096.176270 -0.067472 -0.041425 -6.447792 82.942085 154.503296 3096.176270
17 3096.176270 -0.067472 -0.041425 38.573246 80.546219 -161.013626 3096.176270
18 3096.176270 -0.067472 -0.041425 61.031212 74.565559 -139.876831 3096.176270
[planeAlignerCenter]
16 -94.397774 163.588959 -671.517639 0.001958 -0.001295 156.964752 697.573059
17 -116.745201 147.563599 -682.578552 0.001972 -0.001273 155.701492 708.038086
18 -129.482620 133.845459 -695.456421 0.001977 -0.001266 155.261185 719.958313
[Rear_Toe1_01]
16 0.653352 83.966492 -371.173737 2.145845 21.501575 73.304047 380.553192
17 0.653352 83.966492 -371.173737 2.550297 21.239494 72.931915 380.553192
18 0.653352 83.966492 -371.173737 2.808455 21.403383 72.899040 380.553192
[Rear_Toe2_01]
16 178.200760 -294.826019 -362.060547 -9.301581 44.212341 -114.835777 499.765686
17 178.200760 -294.826019 -362.060547 -10.227952 45.063927 -118.072769 499.765686
18 178.200760 -294.826019 -362.060547 -10.742665 45.880234 -119.370247 499.765686
[Rear_Toe3_01]
16 -153.359680 -308.780914 -362.060852 -11.077352 44.247391 -158.382492 499.952881
17 -153.359680 -308.780914 -362.060852 -11.080163 44.653053 -159.783569 499.952881
18 -153.359680 -308.780914 -362.060852 -11.039535 45.060345 -159.919968 499.952881
[planeLockWeightCenter]
16 1000.000366 0.000581 -0.000124 -0.011814 -0.004373 -0.000015 1000.000366
17 1000.000366 0.000587 -0.000127 -0.011814 -0.004373 -0.000015 1000.000366
18 1000.000244 0.000593 -0.000129 -0.011814 -0.004373 -0.000015 1000.000244
[Rear_Toe1_02]
16 379.707825 0.194073 0.000477 0.000489 -33.232483 0.004167 379.707855
17 379.707825 0.194073 0.000477 0.001332 -33.573124 0.001332 379.707855
18 379.707825 0.194073 0.000477 0.001121 -33.571960 0.001395 379.707855
[Rear_Toe1_03]
16 500.129700 0.165701 0.000119 -0.004482 65.352783 -0.000903 500.129761
17 500.129700 0.165701 0.000119 0.006672 69.737953 0.006672 500.129761
18 500.129700 0.165701 0.000119 0.007656 72.363220 0.007656 500.129761
[Rear_Toe2_02]
16 340.494507 0.000238 -0.000954 -0.000575 -85.727631 -0.000575 340.494507
17 340.494507 0.000238 -0.000954 0.001176 -83.335526 0.001176 340.494507
18 340.494507 0.000238 -0.000954 0.001177 -81.331703 0.001177 340.494507
[Rear_Toe2_03]
16 433.103577 0.000000 0.000238 179.987625 79.111557 179.987625 433.103546
17 433.103577 0.000000 0.000238 179.972015 85.193970 179.972015 433.103546
18 433.103577 0.000000 0.000238 0.000000 89.673744 -0.000007 433.103546
[Rear_Toe3_02]
16 340.494141 -0.000358 -0.000477 0.001179 -79.950531 0.001179 340.494171
17 340.494141 -0.000358 -0.000477 0.001182 -76.293900 0.001182 340.494171
18 340.494141 -0.000358 -0.000477 0.001186 -73.607887 0.001186 340.494171
[Rear_Toe3_03]
16 433.103577 0.001431 -0.000238 -0.028310 87.520142 -0.024813 433.103546
17 433.103577 0.001431 -0.000238 0.014112 80.458755 0.014112 433.103546
18 433.103577 0.001431 -0.000238 0.009501 75.808411 0.009501 433.103546
[Back_Bone]
16 1312.175781 -701.934692 0.000954 1.302103 -3.661989 -83.755753 1488.125488
17 1312.175781 -701.934692 0.000954 1.795295 -3.651017 -86.244919 1488.125488
18 1312.175781 -701.934692 0.000954 2.121208 -3.650540 -87.370285 1488.125488
[Head]
16 1406.159424 809.709290 0.001431 -9.497407 4.400148 3.744022 1622.625488
17 1406.159424 809.709290 0.001431 -9.482149 4.154430 4.047926 1622.625488
18 1406.159424 809.709290 0.001431 -9.468196 3.908633 4.351672 1622.625488
[Motor_Bone]
16 1158.364380 -417.834747 0.000477 0.001261 -0.033986 -106.021004 1231.419434
17 1158.364380 -417.834747 0.000477 2.853720 -2.893725 -108.876030 1231.419434
18 1158.364380 -417.834747 0.000477 5.387601 -1.836368 -107.820084 1231.419434
[Ping_Mechanism]
16 1223.097778 -420.595398 80.681870 0.000103 -0.000053 82.120995 1295.908325
17 1226.004028 -420.751038 84.118347 0.000103 -0.000053 82.120995 1298.920044
18 1227.711670 -420.828491 85.743439 0.000103 -0.000053 82.120995 1300.663086
[BN_LookIK]
16 193.241119 1380.371704 -0.002861 0.000000 89.965736 -31.038179 1393.832153
17 193.241119 1380.371704 -0.002861 0.000000 89.965736 -31.038179 1393.832153
18 193.241119 1380.371704 -0.002861 0.000000 89.965736 -31.038179 1393.832153
[bottomMouth]
16 -435.092926 615.759399 -0.000954 -0.000022 0.000016 73.527184 753.966492
17 -435.092926 615.759399 -0.000954 -0.000022 0.000016 73.527184 753.966492
18 -435.092926 615.759399 -0.000954 -0.000022 0.000016 73.527184 753.966492
[L_Mouth01]
16 554.440979 7.658243 838.222046 150.204178 23.759130 109.605339 1005.027161
17 554.440979 7.658243 838.222046 150.204178 23.759130 109.605339 1005.027161
18 554.440979 7.658243 838.222046 150.204178 23.759130 109.605339 1005.027161
[L_mouthFront]
16 551.629089 934.514771 339.150421 0.000081 2.804060 79.119301 1136.941284
17 551.629089 934.514771 339.150421 0.000081 2.804060 79.119301 1136.941284
18 551.629089 934.514771 339.150421 0.000081 2.804060 79.119301 1136.941284
[mouthGun]
16 55.332661 1627.420898 0.000000 0.000023 0.000009 -11.038128 1628.361328
17 55.332661 1627.420898 0.000000 0.000023 0.000009 -11.038128 1628.361328
18 55.332661 1627.420898 0.000000 0.000023 0.000009 -11.038128 1628.361328
[R_Mouth01]
16 554.442383 7.659197 -838.223938 29.795891 -23.759109 109.605331 1005.029541
17 554.442383 7.659197 -838.223938 29.795891 -23.759109 109.605331 1005.029541
18 554.442383 7.659197 -838.223938 29.795891 -23.759109 109.605331 1005.029541
[R_mouthFront]
16 551.629089 934.514282 -339.151367 0.000029 -2.803930 79.119133 1136.941162
17 551.629089 934.514282 -339.151367 0.000029 -2.803930 79.119133 1136.941162
18 551.629089 934.514282 -339.151367 0.000029 -2.803930 79.119133 1136.941162
[TopMouth]
16 461.269867 -56.106091 -0.008583 -0.000059 -0.000268 92.025169 464.669525
17 461.269867 -56.106091 -0.008583 -0.000059 -0.000268 92.025169 464.669525
18 461.269867 -56.106091 -0.008583 -0.000059 -0.000268 92.025169 464.669525
[weapon_bone]
16 -987.239868 1448.372803 0.001431 0.000000 89.965736 -31.038221 1752.833740
17 -987.239868 1448.372803 0.001431 0.000000 89.965736 -31.038221 1752.833740
18 -987.239868 1448.372803 0.001431 0.000000 89.965736 -31.038221 1752.833740
